# xmcd
#
# Track frame offsets: 
#        150
#        13067
#        26837
#        37737
#        47860
#        59247
#        68885
#        80587
#        92670
#        102950
#
# Disc length: 1532 seconds
#
# Revision: 0
# Processed by: cddbd v1.5.1PL0 Copyright (c) Steve Scherf et al.
# Submitted via: ExactAudioCopy v0.95a3
#
DISCID=8405fa0a
DTITLE=Willie Nelson and George Jones - Back 2 Back Hits
DYEAR=2000
DGENRE=Country
TTITLE0=Nelson Willie - Crazy
TTITLE1=Nelson Willie - Funny How Time Slips Away
TTITLE2=Nelson Willie - Hello Walls
TTITLE3=Nelson Willie - Touch Me
TTITLE4=Nelson Willie - You Took My Happy Away
TTITLE5=Jones George - The Race Is On
TTITLE6=Jones George - She Thinks I Still Care
TTITLE7=Jones George - We Must Have Been Out Of Our Minds
TTITLE8=Jones George - Your Heart Turned Left (And I was On The Right)
TTITLE9=Jones George - A Girl I Used To Know
EXTD=
EXTT0=
EXTT1=
EXTT2=
EXTT3=
EXTT4=
EXTT5=
EXTT6=
EXTT7=
EXTT8=
EXTT9=
PLAYORDER=
